<svg width="99" height="99" viewBox="0 0 99 99" fill="none" xmlns="http://www.w3.org/2000/svg">
<mask id="mask0_7206_3451" style="mask-type:luminance" maskUnits="userSpaceOnUse" x="22" y="6" width="54" height="86">
<path d="M22.9783 6.89453H75.8288V91.9149H22.9783V6.89453Z" fill="white"/>
</mask>
<g mask="url(#mask0_7206_3451)">
<path fill-rule="evenodd" clip-rule="evenodd" d="M49.4428 88.7671C52.3652 87.1797 64.9805 79.6562 70.7686 65.6483C68.5088 65.7157 64.9924 67.3031 60.585 70.7172C56.2243 74.0965 51.1325 79.2449 45.6751 86.4497C47.3647 87.6029 48.7117 88.3678 49.4428 88.7671ZM55.1504 50.8852L50.8235 53.1004V61.6064C54.1234 58.7971 57.6278 57.1652 60.9277 56.3089C67.5035 54.6073 73.3722 56.0456 75.1413 57.2217L75.9072 57.7244L75.7353 58.6263C71.4997 80.9923 50.1163 91.5295 50.0586 91.5524L49.4428 91.8613L48.8259 91.5524C48.7682 91.5295 27.3739 80.9923 23.1492 58.6263L22.9784 57.7244L23.7313 57.2217C25.5123 56.0456 31.381 54.6073 37.9568 56.3089C41.2567 57.1652 44.7612 58.7971 48.061 61.6064V41.1129C45.3661 39.4004 43.1063 37.0481 41.508 34.2737C39.8293 31.3622 38.8707 27.9949 38.8707 24.41C38.8707 20.825 39.8293 17.4566 41.508 14.5451C43.2434 11.5433 45.7436 9.03113 48.7454 7.29578L49.4428 6.89648L50.1272 7.29578C53.13 9.03113 55.6422 11.5433 57.3776 14.5451C59.0552 17.4566 60.0149 20.825 60.0149 24.41C60.0149 27.9949 59.0552 31.3622 57.3776 34.2737C55.7673 37.0481 53.5184 39.4004 50.8235 41.1129V50.0061L53.8035 48.4764C53.9177 46.444 54.4889 44.4465 55.4823 42.6774C56.5888 40.7136 58.199 39.0011 60.2771 37.7564C62.3551 36.5237 64.6269 35.9297 66.8877 35.8948C69.216 35.872 71.5226 36.4552 73.555 37.5845L74.2513 37.9729L74.2622 38.7726C74.297 41.1129 73.7029 43.4194 72.5725 45.4507C71.466 47.4145 69.8438 49.127 67.7668 50.3608C65.6996 51.5935 63.4279 52.1985 61.167 52.2213C59.0901 52.2561 57.0229 51.7872 55.1504 50.8852ZM42.3186 48.4993C42.2152 46.9358 41.7583 45.405 40.9934 44.0243C40.1143 42.4718 38.8359 41.1129 37.192 40.1304C35.548 39.149 33.7441 38.6692 31.9631 38.6464C30.3876 38.6235 28.8231 38.9662 27.3967 39.6288C27.499 41.1923 27.944 42.7231 28.7208 44.1038C29.588 45.6563 30.8675 47.0152 32.5114 47.9857C34.1663 48.9671 35.9702 49.4469 37.7512 49.4698C39.3266 49.4926 40.8912 49.1619 42.3186 48.4993ZM43.4022 42.6774C44.5327 44.7087 45.1267 47.0152 45.093 49.3446L45.081 50.1432L44.3847 50.5316C42.3523 51.673 40.0458 52.2561 37.7175 52.2333C35.4566 52.1985 33.1849 51.5935 31.1068 50.3608C29.0287 49.127 27.4196 47.4145 26.312 45.4507C25.1696 43.4194 24.5875 41.1129 24.6224 38.7726V37.9729L25.3187 37.5845C27.351 36.4552 29.6685 35.8611 31.9968 35.8948C34.2576 35.9297 36.5294 36.5237 38.5966 37.7564C40.6746 39.0011 42.2958 40.7136 43.4022 42.6774ZM57.8911 44.0243C57.1143 45.405 56.6693 46.9358 56.5659 48.4993C57.9934 49.1619 59.5579 49.4926 61.1333 49.4698C62.9144 49.4469 64.7183 48.9671 66.3622 47.9857C68.0062 47.0152 69.2846 45.6563 70.1637 44.1038C70.9285 42.7231 71.3855 41.1923 71.4889 39.6288C70.0614 38.9662 68.4969 38.6235 66.9215 38.6464C65.1404 38.6692 63.3365 39.149 61.6817 40.1304C60.0486 41.1129 58.7582 42.4718 57.8911 44.0243ZM43.894 32.9039C44.9668 34.7655 46.3823 36.3975 48.061 37.7336V26.191H50.8235V37.7336C52.5022 36.3975 53.9177 34.7655 54.9905 32.9039C56.4299 30.4146 57.2513 27.5151 57.2513 24.41C57.2513 21.3157 56.4299 18.4162 54.9905 15.916C53.6327 13.5757 51.7254 11.577 49.4428 10.1039C47.1591 11.577 45.2518 13.5757 43.894 15.916C42.4546 18.4162 41.6332 21.3157 41.6332 24.41C41.6332 27.5151 42.4546 30.4146 43.894 32.9039ZM27.0997 62.9533C28.846 62.8053 31.0611 63.3069 33.607 64.5516C36.1301 65.7843 39.0753 67.7601 42.3066 70.5682C44.9331 67.623 46.5879 65.83 47.5127 64.8486C44.2019 61.6172 40.6061 59.8482 37.2714 58.9799C32.3395 57.7015 28.0582 58.3184 26.0607 59.117C26.3457 60.4411 26.6993 61.7206 27.0997 62.9533ZM40.4799 72.6354C37.4542 70.0089 34.7255 68.1713 32.3972 67.0289C30.6847 66.1955 29.2452 65.7614 28.1159 65.682C30.1243 70.5225 32.9444 74.5753 35.9016 77.898C37.6261 75.8885 39.1438 74.1422 40.4799 72.6354ZM71.7619 62.9761C72.1732 61.7315 72.5268 60.4531 72.8238 59.117C70.8143 58.3184 66.533 57.7015 61.6131 58.9799C57.9596 59.9276 54.0091 61.9491 50.447 65.7843L50.4122 65.8191L50.3894 65.8528L49.4428 66.869L49.42 66.8581C47.8554 68.513 44.3042 72.3721 37.7969 79.9075C39.7498 81.8714 41.6897 83.5034 43.4371 84.8285C49.0653 77.3953 54.3518 72.0642 58.8953 68.5358C64.2613 64.3807 68.771 62.6791 71.7619 62.9761Z" fill="white"/>
</g>
<mask id="mask1_7206_3451" style="mask-type:luminance" maskUnits="userSpaceOnUse" x="0" y="0" width="99" height="99">
<path d="M49.5005 0C22.1625 0 0 22.1625 0 49.5005C0 76.8386 22.1625 99 49.5005 99C76.8386 99 99 76.8386 99 49.5005C99 22.1625 76.8386 0 49.5005 0Z" fill="white"/>
</mask>
<g mask="url(#mask1_7206_3451)">
<path d="M49.5006 0C22.1625 0 0 22.1625 0 49.5005C0 76.8386 22.1625 99 49.5006 99C76.8386 99 99 76.8386 99 49.5005C99 22.1625 76.8386 0 49.5006 0Z" stroke="white" stroke-width="8"/>
</g>
</svg>
