<svg width="104" height="86" viewBox="0 0 104 86" fill="none" xmlns="http://www.w3.org/2000/svg">
<path d="M9.856 34.16C8.61867 34.16 7.22133 34.0533 5.664 33.84C4.81067 33.7333 4.224 33.5093 3.904 33.168C3.584 32.8267 3.44533 32.272 3.488 31.504C3.63733 29.392 3.98933 26.7893 4.544 23.696C5.09867 20.5813 5.77067 17.584 6.56 14.704C6.70933 14.1707 7.008 13.7973 7.456 13.584C7.904 13.3707 8.49067 13.264 9.216 13.264C10.5173 13.264 11.168 13.6267 11.168 14.352C11.168 14.6507 11.104 14.992 10.976 15.376C10.4213 17.0827 9.86667 19.376 9.312 22.256C8.75733 25.1147 8.36267 27.8453 8.128 30.448C8.768 30.512 9.49333 30.544 10.304 30.544C14.0373 30.544 16.8213 29.4133 18.656 27.152C20.512 24.8907 21.44 21.872 21.44 18.096C21.44 15.5573 20.7147 13.5947 19.264 12.208C17.8133 10.8213 15.7653 10.128 13.12 10.128C11.4133 10.128 9.71733 10.3947 8.032 10.928C6.368 11.4613 4.864 12.1653 3.52 13.04C3.24267 13.232 2.944 13.328 2.624 13.328C2.26133 13.328 1.97333 13.1787 1.76 12.88C1.54667 12.56 1.44 12.176 1.44 11.728C1.44 11.216 1.52533 10.8 1.696 10.48C1.86667 10.1387 2.15467 9.82933 2.56 9.552C4.032 8.54933 5.76 7.792 7.744 7.28C9.728 6.74667 11.6373 6.48 13.472 6.48C16.0747 6.48 18.3253 6.93867 20.224 7.856C22.1227 8.752 23.584 10.0747 24.608 11.824C25.632 13.5733 26.144 15.6853 26.144 18.16C26.144 21.3813 25.504 24.1973 24.224 26.608C22.944 28.9973 21.0773 30.8533 18.624 32.176C16.1707 33.4987 13.248 34.16 9.856 34.16ZM29.9575 34.16C28.9975 34.16 28.2082 33.7227 27.5895 32.848C26.9922 31.952 26.6935 30.8427 26.6935 29.52C26.6935 27.92 26.8002 26.4587 27.0135 25.136C27.2268 23.792 27.5788 22.3733 28.0695 20.88C28.2828 20.24 28.5815 19.7813 28.9655 19.504C29.3495 19.2267 29.9575 19.088 30.7895 19.088C31.2588 19.088 31.5788 19.1627 31.7495 19.312C31.9415 19.4613 32.0375 19.6853 32.0375 19.984C32.0375 20.1547 31.9202 20.7307 31.6855 21.712C31.4722 22.5013 31.3015 23.216 31.1735 23.856C30.7468 26.096 30.5335 27.5893 30.5335 28.336C30.5335 28.784 30.5868 29.104 30.6935 29.296C30.8002 29.4667 30.9708 29.552 31.2055 29.552C31.5255 29.552 31.9202 29.232 32.3895 28.592C32.8802 27.952 33.3922 26.9813 33.9255 25.68C34.4802 24.3787 35.0135 22.7787 35.5255 20.88C35.6962 20.24 35.9522 19.7813 36.2935 19.504C36.6562 19.2267 37.1895 19.088 37.8935 19.088C38.3842 19.088 38.7255 19.152 38.9175 19.28C39.1095 19.3867 39.2055 19.6 39.2055 19.92C39.2055 20.4533 38.9388 21.9147 38.4055 24.304C37.8082 27.0347 37.5095 28.72 37.5095 29.36C37.5095 29.7653 37.5948 30.0853 37.7655 30.32C37.9362 30.5333 38.1602 30.64 38.4375 30.64C38.8642 30.64 39.3655 30.384 39.9415 29.872C40.5388 29.3387 41.3282 28.4853 42.3095 27.312C42.5655 27.0133 42.8535 26.864 43.1735 26.864C43.4508 26.864 43.6642 26.992 43.8135 27.248C43.9842 27.504 44.0695 27.856 44.0695 28.304C44.0695 29.1573 43.8668 29.8187 43.4615 30.288C42.5442 31.4187 41.5522 32.3467 40.4855 33.072C39.4402 33.7973 38.2455 34.16 36.9015 34.16C35.8775 34.16 35.1202 33.7653 34.6295 32.976C34.1602 32.1867 33.9255 31.0773 33.9255 29.648C33.5628 31.0987 33.0188 32.2187 32.2935 33.008C31.5682 33.776 30.7895 34.16 29.9575 34.16ZM57.2188 24.176C57.4961 24.176 57.7094 24.3147 57.8587 24.592C58.0081 24.8693 58.0828 25.2213 58.0828 25.648C58.0828 26.1813 58.0081 26.5973 57.8587 26.896C57.7094 27.1733 57.4747 27.3653 57.1547 27.472C55.8747 27.92 54.4667 28.176 52.9307 28.24C52.5041 30.0107 51.6934 31.44 50.4987 32.528C49.3254 33.616 48.0241 34.16 46.5947 34.16C44.4401 34.16 42.8721 33.3387 41.8907 31.696C40.9094 30.0533 40.4187 27.6747 40.4187 24.56C40.4187 21.808 40.7601 18.8213 41.4427 15.6C42.1254 12.3573 43.1174 9.60533 44.4187 7.344C45.7414 5.06133 47.3094 3.92 49.1227 3.92C50.1041 3.92 50.8934 4.34667 51.4907 5.2C52.0881 6.032 52.3867 7.12 52.3867 8.464C52.3867 10.2133 52.0561 11.952 51.3947 13.68C50.7334 15.408 49.6347 17.2213 48.0987 19.12C49.5281 19.2267 50.6907 19.824 51.5867 20.912C52.4827 21.9787 53.0161 23.3013 53.1867 24.88C54.1894 24.816 55.3841 24.6027 56.7708 24.24C56.8987 24.1973 57.0481 24.176 57.2188 24.176ZM48.3867 7.088C47.9601 7.088 47.4907 7.728 46.9787 9.008C46.4881 10.2667 46.0294 11.984 45.6027 14.16C45.1761 16.336 44.8561 18.7147 44.6427 21.296C46.0507 18.7147 47.1707 16.4427 48.0027 14.48C48.8561 12.496 49.2827 10.736 49.2827 9.2C49.2827 8.51733 49.1974 7.99467 49.0267 7.632C48.8774 7.26933 48.6641 7.088 48.3867 7.088ZM46.7227 30.768C47.3841 30.768 47.9707 30.4907 48.4827 29.936C48.9947 29.3813 49.3361 28.5813 49.5067 27.536C48.8454 27.088 48.3334 26.5013 47.9707 25.776C47.6294 25.0507 47.4587 24.2827 47.4587 23.472C47.4587 23.1733 47.5014 22.768 47.5867 22.256H47.4907C46.6161 22.256 45.8801 22.6933 45.2827 23.568C44.7067 24.4213 44.4187 25.5733 44.4187 27.024C44.4187 28.24 44.6427 29.168 45.0907 29.808C45.5601 30.448 46.1041 30.768 46.7227 30.768ZM66.1678 26.864C66.4451 26.864 66.6584 26.992 66.8078 27.248C66.9784 27.504 67.0638 27.856 67.0638 28.304C67.0638 29.1573 66.8611 29.8187 66.4558 30.288C65.5384 31.4187 64.5358 32.3467 63.4478 33.072C62.3811 33.7973 61.1651 34.16 59.7998 34.16C57.9224 34.16 56.5251 33.3067 55.6077 31.6C54.7117 29.8933 54.2637 27.6853 54.2637 24.976C54.2637 22.3733 54.5944 19.408 55.2557 16.08C55.9384 12.752 56.9304 9.89333 58.2318 7.504C59.5544 5.11466 61.1224 3.92 62.9358 3.92C63.9598 3.92 64.7598 4.4 65.3358 5.36C65.9331 6.29867 66.2318 7.65333 66.2318 9.424C66.2318 11.9627 65.5278 14.9067 64.1198 18.256C62.7118 21.6053 60.8024 24.9227 58.3918 28.208C58.5411 29.0827 58.7864 29.712 59.1278 30.096C59.4691 30.4587 59.9171 30.64 60.4718 30.64C61.3464 30.64 62.1144 30.3947 62.7758 29.904C63.4371 29.392 64.2798 28.528 65.3038 27.312C65.5598 27.0133 65.8478 26.864 66.1678 26.864ZM62.2318 7.088C61.7411 7.088 61.1864 7.97333 60.5677 9.744C59.9491 11.5147 59.4051 13.712 58.9358 16.336C58.4664 18.96 58.2104 21.4773 58.1677 23.888C59.6824 21.392 60.8878 18.896 61.7838 16.4C62.6798 13.8827 63.1278 11.5893 63.1278 9.52C63.1278 7.89867 62.8291 7.088 62.2318 7.088ZM67.3893 16.976C66.4933 16.976 65.8213 16.7733 65.3733 16.368C64.9253 15.9413 64.7013 15.3547 64.7013 14.608C64.7013 13.8613 64.9893 13.2427 65.5653 12.752C66.1626 12.24 66.8986 11.984 67.7733 11.984C68.5626 11.984 69.2026 12.176 69.6933 12.56C70.1839 12.944 70.4293 13.488 70.4293 14.192C70.4293 15.0453 70.1519 15.728 69.5973 16.24C69.0426 16.7307 68.3066 16.976 67.3893 16.976ZM67.1333 34.16C65.7466 34.16 64.7333 33.6693 64.0933 32.688C63.4746 31.7067 63.1653 30.4053 63.1653 28.784C63.1653 27.824 63.2826 26.5973 63.5173 25.104C63.7733 23.5893 64.0933 22.1813 64.4773 20.88C64.6693 20.1973 64.9253 19.728 65.2453 19.472C65.5653 19.216 66.0773 19.088 66.7813 19.088C67.8693 19.088 68.4133 19.4507 68.4133 20.176C68.4133 20.7093 68.2106 21.9467 67.8053 23.888C67.2933 26.2347 67.0373 27.824 67.0373 28.656C67.0373 29.296 67.1226 29.7867 67.2933 30.128C67.4639 30.4693 67.7519 30.64 68.1573 30.64C68.5413 30.64 69.0213 30.3733 69.5973 29.84C70.1733 29.3067 70.9413 28.464 71.9013 27.312C72.1573 27.0133 72.4453 26.864 72.7653 26.864C73.0426 26.864 73.2559 26.992 73.4053 27.248C73.5759 27.504 73.6613 27.856 73.6613 28.304C73.6613 29.1573 73.4586 29.8187 73.0533 30.288C70.9413 32.8693 68.9679 34.16 67.1333 34.16ZM72.0642 34.16C71.2536 34.16 70.6776 33.7333 70.3362 32.88C70.0162 32.0267 69.8562 30.6613 69.8562 28.784C69.8562 26.0107 70.2509 23.376 71.0402 20.88C71.2322 20.2613 71.5416 19.8133 71.9682 19.536C72.4162 19.2373 73.0349 19.088 73.8242 19.088C74.2509 19.088 74.5496 19.1413 74.7202 19.248C74.8909 19.3547 74.9762 19.5573 74.9762 19.856C74.9762 20.1973 74.8162 20.9653 74.4962 22.16C74.2829 23.0133 74.1122 23.76 73.9842 24.4C73.8562 25.04 73.7496 25.8293 73.6642 26.768C74.3682 24.9333 75.1576 23.44 76.0322 22.288C76.9069 21.136 77.7602 20.3147 78.5922 19.824C79.4456 19.3333 80.2242 19.088 80.9282 19.088C81.6109 19.088 82.1229 19.2693 82.4642 19.632C82.8269 19.9733 83.0082 20.4853 83.0082 21.168C83.0082 21.7227 82.8909 22.768 82.6562 24.304C82.4429 25.6053 82.2722 26.8427 82.1442 28.016C82.0162 29.168 81.9522 30.4587 81.9522 31.888C81.9522 32.6987 81.7816 33.2853 81.4402 33.648C81.1202 33.9893 80.5869 34.16 79.8402 34.16C79.1362 34.16 78.6242 33.9787 78.3042 33.616C77.9842 33.2533 77.8242 32.7093 77.8242 31.984C77.8242 31.1307 77.9736 29.7227 78.2722 27.76C78.5282 26.0533 78.6562 24.9653 78.6562 24.496C78.6562 24.1547 78.5389 23.984 78.3042 23.984C78.0269 23.984 77.6322 24.3467 77.1202 25.072C76.6296 25.776 76.1176 26.7147 75.5842 27.888C75.0722 29.0613 74.6562 30.2987 74.3362 31.6C74.1016 32.6027 73.8242 33.2853 73.5042 33.648C73.2056 33.9893 72.7256 34.16 72.0642 34.16Z" fill="white"/>
<path d="M26.464 71.256C23.6267 71.256 21.3547 70.7227 19.648 69.656C17.9413 68.568 17.088 66.9147 17.088 64.696C17.088 63.5227 17.2907 62.6267 17.696 62.008C18.1013 61.3893 18.6987 61.08 19.488 61.08C20.064 61.08 20.5333 61.2293 20.896 61.528C21.2587 61.8267 21.44 62.2107 21.44 62.68C21.44 63.1067 21.408 63.48 21.344 63.8C21.344 63.8853 21.3227 64.0347 21.28 64.248C21.2587 64.4613 21.248 64.6853 21.248 64.92C21.248 65.88 21.728 66.5947 22.688 67.064C23.6693 67.5333 25.0347 67.768 26.784 67.768C28.5973 67.768 30.016 67.448 31.04 66.808C32.064 66.1467 32.576 65.2293 32.576 64.056C32.576 63.3307 32.3413 62.712 31.872 62.2C31.4027 61.6667 30.816 61.2293 30.112 60.888C29.408 60.5253 28.416 60.088 27.136 59.576C25.4933 58.936 24.1493 58.328 23.104 57.752C22.08 57.176 21.1947 56.3973 20.448 55.416C19.7227 54.4133 19.36 53.176 19.36 51.704C19.36 50.168 19.7653 48.8027 20.576 47.608C21.408 46.4133 22.592 45.4853 24.128 44.824C25.6853 44.1627 27.5093 43.832 29.6 43.832C31.1573 43.832 32.5867 44.0667 33.888 44.536C35.1893 44.984 36.224 45.6773 36.992 46.616C37.7813 47.5547 38.176 48.7067 38.176 50.072C38.176 51.416 37.9733 52.4293 37.568 53.112C37.1627 53.7947 36.5653 54.136 35.776 54.136C35.2213 54.136 34.752 53.9653 34.368 53.624C34.0053 53.2827 33.824 52.8773 33.824 52.408C33.824 52.0027 33.856 51.6293 33.92 51.288C33.984 50.648 34.016 50.2427 34.016 50.072C34.016 49.176 33.5787 48.4933 32.704 48.024C31.8293 47.5547 30.7413 47.32 29.44 47.32C27.6053 47.32 26.1973 47.6613 25.216 48.344C24.256 49.0053 23.776 49.944 23.776 51.16C23.776 51.9707 24.0213 52.664 24.512 53.24C25.024 53.816 25.6533 54.296 26.4 54.68C27.1467 55.064 28.192 55.5227 29.536 56.056C31.1573 56.7173 32.4587 57.3147 33.44 57.848C34.4213 58.3813 35.2533 59.1067 35.936 60.024C36.64 60.9413 36.992 62.072 36.992 63.416C36.992 65.9333 36.032 67.8747 34.112 69.24C32.2133 70.584 29.664 71.256 26.464 71.256ZM44.5555 71.16C42.4648 71.16 40.8328 70.5733 39.6595 69.4C38.5075 68.2053 37.9315 66.6373 37.9315 64.696C37.9315 62.968 38.2728 61.4533 38.9555 60.152C39.6382 58.8507 40.5235 57.848 41.6115 57.144C42.6995 56.44 43.8408 56.088 45.0355 56.088C46.2088 56.088 47.1155 56.44 47.7555 57.144C48.4168 57.8267 48.7475 58.712 48.7475 59.8C48.7475 60.696 48.5448 61.4533 48.1395 62.072C47.7555 62.6907 47.2435 63 46.6035 63C46.1982 63 45.8675 62.904 45.6115 62.712C45.3768 62.52 45.2595 62.2533 45.2595 61.912C45.2595 61.7627 45.2808 61.592 45.3235 61.4C45.3662 61.208 45.3982 61.0693 45.4195 60.984C45.5262 60.664 45.5795 60.3653 45.5795 60.088C45.5795 59.8107 45.5048 59.5973 45.3555 59.448C45.2275 59.2987 45.0355 59.224 44.7795 59.224C44.2888 59.224 43.8302 59.448 43.4035 59.896C42.9768 60.3227 42.6355 60.9093 42.3795 61.656C42.1235 62.4027 41.9955 63.224 41.9955 64.12C41.9955 66.5947 43.0728 67.832 45.2275 67.832C46.1022 67.832 47.0408 67.544 48.0435 66.968C49.0675 66.3707 50.0702 65.4853 51.0515 64.312C51.3075 64.0133 51.5955 63.864 51.9155 63.864C52.1928 63.864 52.4062 63.992 52.5555 64.248C52.7262 64.504 52.8115 64.856 52.8115 65.304C52.8115 66.1147 52.6088 66.776 52.2035 67.288C51.2008 68.5253 49.9955 69.4853 48.5875 70.168C47.2008 70.8293 45.8568 71.16 44.5555 71.16ZM52.5683 71.16C51.2456 71.16 50.1896 70.68 49.4003 69.72C48.6109 68.76 48.2163 67.5013 48.2163 65.944C48.2163 64.2373 48.6109 62.6267 49.4003 61.112C50.1896 59.576 51.2349 58.3493 52.5363 57.432C53.8589 56.4933 55.2563 56.024 56.7283 56.024C57.1976 56.024 57.5069 56.12 57.6563 56.312C57.8269 56.4827 57.9656 56.8027 58.0723 57.272C58.5203 57.1867 58.9896 57.144 59.4803 57.144C60.5256 57.144 61.0483 57.5173 61.0483 58.264C61.0483 58.712 60.8883 59.7787 60.5683 61.464C60.0776 63.9173 59.8323 65.624 59.8323 66.584C59.8323 66.904 59.9069 67.16 60.0563 67.352C60.2269 67.544 60.4403 67.64 60.6963 67.64C61.1016 67.64 61.5923 67.384 62.1683 66.872C62.7443 66.3387 63.5229 65.4853 64.5043 64.312C64.7603 64.0133 65.0483 63.864 65.3683 63.864C65.6456 63.864 65.8589 63.992 66.0083 64.248C66.1789 64.504 66.2643 64.856 66.2643 65.304C66.2643 66.1573 66.0616 66.8187 65.6563 67.288C64.7816 68.376 63.8536 69.2933 62.8723 70.04C61.8909 70.7867 60.9416 71.16 60.0243 71.16C59.3203 71.16 58.6696 70.9253 58.0723 70.456C57.4963 69.9653 57.0589 69.304 56.7603 68.472C55.6509 70.264 54.2536 71.16 52.5683 71.16ZM53.7203 67.928C54.1896 67.928 54.6376 67.6507 55.0643 67.096C55.4909 66.5413 55.8003 65.8053 55.9923 64.888L57.1763 59C56.2803 59.0213 55.4483 59.3627 54.6803 60.024C53.9336 60.664 53.3363 61.5173 52.8883 62.584C52.4403 63.6507 52.2163 64.7813 52.2163 65.976C52.2163 66.6373 52.3443 67.128 52.6003 67.448C52.8776 67.768 53.2509 67.928 53.7203 67.928ZM79.4715 63.864C79.7488 63.864 79.9622 63.992 80.1115 64.248C80.2822 64.504 80.3675 64.856 80.3675 65.304C80.3675 66.1573 80.1648 66.8187 79.7595 67.288C78.8422 68.4187 77.8502 69.3467 76.7835 70.072C75.7382 70.7973 74.5435 71.16 73.1995 71.16C72.0688 71.16 71.1515 70.7547 70.4475 69.944C69.2315 70.7333 67.9622 71.1387 66.6395 71.16C66.3622 75.2773 65.7328 78.712 64.7515 81.464C63.7702 84.2373 62.3302 85.624 60.4315 85.624C59.2795 85.624 58.4262 85.208 57.8715 84.376C57.3168 83.544 57.0395 82.392 57.0395 80.92C57.0395 78.8293 57.5195 76.3867 58.4795 73.592C59.4395 70.8187 60.9222 67.7573 62.9275 64.408C62.9275 61.2933 62.9062 59.128 62.8635 57.912C62.8422 57.2933 63.0875 56.8027 63.5995 56.44C64.1115 56.0773 64.7515 55.896 65.5195 55.896C65.9675 55.896 66.2875 55.992 66.4795 56.184C66.6928 56.3547 66.8102 56.7067 66.8315 57.24C66.8315 57.7733 66.8422 58.168 66.8635 58.424C67.5462 57.5707 68.2182 56.9627 68.8795 56.6C69.5408 56.216 70.2448 56.024 70.9915 56.024C72.1862 56.024 73.1568 56.504 73.9035 57.464C74.6715 58.424 75.0555 59.6827 75.0555 61.24C75.0555 62.3707 74.8742 63.4693 74.5115 64.536C74.1488 65.6027 73.6475 66.5733 73.0075 67.448C73.4555 67.576 73.8288 67.64 74.1275 67.64C74.8315 67.64 75.5035 67.384 76.1435 66.872C76.7835 66.36 77.6048 65.5067 78.6075 64.312C78.8635 64.0133 79.1515 63.864 79.4715 63.864ZM66.7995 68.088C67.5675 67.9173 68.2715 67.5013 68.9115 66.84C69.5728 66.1573 70.0955 65.3253 70.4795 64.344C70.8635 63.3413 71.0555 62.296 71.0555 61.208C71.0555 60.568 70.9275 60.088 70.6715 59.768C70.4155 59.4267 70.0742 59.256 69.6475 59.256C68.8795 59.256 67.9515 60.0667 66.8635 61.688C66.8422 62.6267 66.8315 64.0027 66.8315 65.816C66.8315 66.7973 66.8208 67.5547 66.7995 68.088ZM60.6875 82.488C61.2635 82.488 61.7435 81.2293 62.1275 78.712C62.5115 76.216 62.7568 73.1013 62.8635 69.368C61.9462 71.5013 61.2208 73.5387 60.6875 75.48C60.1542 77.4213 59.8875 79.0533 59.8875 80.376C59.8875 81.0587 59.9728 81.5813 60.1435 81.944C60.2928 82.3067 60.4742 82.488 60.6875 82.488ZM90.7818 63.864C91.0591 63.864 91.2724 63.992 91.4218 64.248C91.5924 64.504 91.6778 64.856 91.6778 65.304C91.6778 66.1573 91.4751 66.8187 91.0698 67.288C90.2804 68.248 89.1604 69.1333 87.7098 69.944C86.2804 70.7547 84.7444 71.16 83.1018 71.16C80.8618 71.16 79.1231 70.552 77.8858 69.336C76.6484 68.12 76.0298 66.456 76.0298 64.344C76.0298 62.872 76.3391 61.5067 76.9578 60.248C77.5764 58.968 78.4298 57.9547 79.5178 57.208C80.6271 56.4613 81.8751 56.088 83.2618 56.088C84.4991 56.088 85.4911 56.4613 86.2378 57.208C86.9844 57.9333 87.3578 58.9253 87.3578 60.184C87.3578 61.656 86.8244 62.9253 85.7578 63.992C84.7124 65.0373 82.9311 65.8693 80.4138 66.488C80.9471 67.4693 81.9604 67.96 83.4538 67.96C84.4138 67.96 85.5018 67.6293 86.7178 66.968C87.9551 66.2853 89.0218 65.4 89.9178 64.312C90.1738 64.0133 90.4618 63.864 90.7818 63.864ZM82.7178 59.224C81.9284 59.224 81.2564 59.6827 80.7018 60.6C80.1684 61.5173 79.9018 62.6267 79.9018 63.928V63.992C81.1604 63.6933 82.1524 63.2453 82.8778 62.648C83.6031 62.0507 83.9658 61.3573 83.9658 60.568C83.9658 60.1627 83.8484 59.8427 83.6138 59.608C83.4004 59.352 83.1018 59.224 82.7178 59.224ZM93.7442 71.864C92.6349 71.864 91.7816 71.608 91.1842 71.096C90.6082 70.584 90.3202 70.008 90.3202 69.368C90.3202 68.8133 90.5229 68.3333 90.9282 67.928C91.3336 67.5227 91.9309 67.32 92.7202 67.32C92.9976 67.32 93.3176 67.352 93.6802 67.416C94.0642 67.4587 94.3522 67.4907 94.5442 67.512C94.5229 66.9573 94.3949 66.4347 94.1602 65.944C93.9469 65.4533 93.6696 64.984 93.3282 64.536C92.9869 64.0667 92.6669 63.6613 92.3682 63.32C91.7069 64.5787 91.0456 65.624 90.3842 66.456C89.7442 67.288 89.0402 68.0773 88.2722 68.824C87.8882 69.208 87.4829 69.4 87.0562 69.4C86.7149 69.4 86.4376 69.2827 86.2242 69.048C86.0109 68.792 85.9042 68.4827 85.9042 68.12C85.9042 67.6933 86.0536 67.2987 86.3522 66.936L86.7682 66.424C87.9416 64.9733 88.8269 63.7787 89.4242 62.84C89.8082 62.2213 90.1922 61.4853 90.5762 60.632C90.9816 59.7787 91.5042 58.616 92.1442 57.144C92.5496 56.2053 93.3922 55.736 94.6722 55.736C95.2696 55.736 95.6856 55.7893 95.9202 55.896C96.1549 56.0027 96.2722 56.1733 96.2722 56.408C96.2722 56.536 96.2296 56.7387 96.1442 57.016C96.0589 57.2933 95.9416 57.5707 95.7922 57.848C95.4082 58.616 95.2162 59.2667 95.2162 59.8C95.2162 60.12 95.3229 60.472 95.5362 60.856C95.7709 61.24 96.1229 61.72 96.5922 62.296C97.2749 63.192 97.7869 63.96 98.1282 64.6C98.4909 65.2187 98.6722 65.9013 98.6722 66.648C98.6722 67.544 98.4589 68.3973 98.0322 69.208C97.6269 69.9973 97.0509 70.6373 96.3042 71.128C95.5576 71.6187 94.7042 71.864 93.7442 71.864Z" fill="white"/>
</svg>
