<svg xmlns="http://www.w3.org/2000/svg" xmlns:xlink="http://www.w3.org/1999/xlink" width="500" zoomAndPan="magnify" viewBox="0 0 375 374.999991" height="500" preserveAspectRatio="xMidYMid meet" version="1.0"><defs><clipPath id="45075e4539"><path d="M 92.480469 34.964844 L 282.230469 34.964844 L 282.230469 340.214844 L 92.480469 340.214844 Z M 92.480469 34.964844 " clip-rule="nonzero"/></clipPath><clipPath id="0b2788595e"><path d="M 9.777344 9.777344 L 365.21875 9.777344 L 365.21875 365.21875 L 9.777344 365.21875 Z M 9.777344 9.777344 " clip-rule="nonzero"/></clipPath><clipPath id="77fb3d5c86"><path d="M 187.5 9.777344 C 89.347656 9.777344 9.777344 89.347656 9.777344 187.5 C 9.777344 285.652344 89.347656 365.21875 187.5 365.21875 C 285.652344 365.21875 365.21875 285.652344 365.21875 187.5 C 365.21875 89.347656 285.652344 9.777344 187.5 9.777344 Z M 187.5 9.777344 " clip-rule="nonzero"/></clipPath></defs><g clip-path="url(#45075e4539)"><path fill="#00bf63" d="M 187.496094 328.914062 C 197.988281 323.214844 243.28125 296.203125 264.0625 245.910156 C 255.949219 246.152344 243.324219 251.851562 227.5 264.109375 C 211.84375 276.242188 193.5625 294.726562 173.96875 320.59375 C 180.035156 324.734375 184.871094 327.480469 187.496094 328.914062 Z M 207.988281 192.90625 L 192.453125 200.859375 L 192.453125 231.398438 C 204.300781 221.3125 216.882812 215.453125 228.730469 212.378906 C 252.339844 206.269531 273.410156 211.433594 279.761719 215.65625 L 282.511719 217.460938 L 281.894531 220.699219 C 266.6875 301 189.914062 338.832031 189.707031 338.914062 L 187.496094 340.023438 L 185.28125 338.914062 C 185.074219 338.832031 108.261719 301 93.09375 220.699219 L 92.480469 217.460938 L 95.183594 215.65625 C 101.578125 211.433594 122.648438 206.269531 146.257812 212.378906 C 158.105469 215.453125 170.6875 221.3125 182.535156 231.398438 L 182.535156 157.820312 C 172.859375 151.671875 164.746094 143.226562 159.007812 133.265625 C 152.980469 122.8125 149.539062 110.722656 149.539062 97.851562 C 149.539062 84.980469 152.980469 72.886719 159.007812 62.433594 C 165.238281 51.65625 174.214844 42.636719 184.992188 36.40625 L 187.496094 34.972656 L 189.953125 36.40625 C 200.734375 42.636719 209.753906 51.65625 215.984375 62.433594 C 222.007812 72.886719 225.453125 84.980469 225.453125 97.851562 C 225.453125 110.722656 222.007812 122.8125 215.984375 133.265625 C 210.203125 143.226562 202.128906 151.671875 192.453125 157.820312 L 192.453125 189.75 L 203.152344 184.257812 C 203.5625 176.960938 205.613281 169.789062 209.179688 163.4375 C 213.152344 156.386719 218.933594 150.238281 226.394531 145.769531 C 233.855469 141.34375 242.011719 139.210938 250.128906 139.085938 C 258.488281 139.003906 266.769531 141.097656 274.066406 145.152344 L 276.566406 146.546875 L 276.605469 149.417969 C 276.730469 157.820312 274.597656 166.101562 270.539062 173.394531 C 266.566406 180.445312 260.742188 186.59375 253.285156 191.023438 C 245.863281 195.449219 237.707031 197.621094 229.589844 197.703125 C 222.132812 197.828125 214.710938 196.144531 207.988281 192.90625 Z M 161.917969 184.339844 C 161.546875 178.726562 159.90625 173.230469 157.160156 168.273438 C 154.003906 162.699219 149.414062 157.820312 143.511719 154.292969 C 137.609375 150.769531 131.132812 149.046875 124.738281 148.964844 C 119.082031 148.882812 113.464844 150.113281 108.34375 152.492188 C 108.710938 158.105469 110.308594 163.601562 113.097656 168.558594 C 116.210938 174.132812 120.804688 179.011719 126.707031 182.496094 C 132.648438 186.019531 139.125 187.742188 145.519531 187.824219 C 151.175781 187.90625 156.792969 186.71875 161.917969 184.339844 Z M 165.808594 163.4375 C 169.867188 170.730469 172 179.011719 171.878906 187.375 L 171.835938 190.242188 L 169.335938 191.636719 C 162.039062 195.734375 153.757812 197.828125 145.398438 197.746094 C 137.28125 197.621094 129.125 195.449219 121.664062 191.023438 C 114.203125 186.59375 108.425781 180.445312 104.449219 173.394531 C 100.347656 166.101562 98.257812 157.820312 98.382812 149.417969 L 98.382812 146.546875 L 100.882812 145.152344 C 108.179688 141.097656 116.5 138.964844 124.859375 139.085938 C 132.976562 139.210938 141.132812 141.34375 148.554688 145.769531 C 156.015625 150.238281 161.835938 156.386719 165.808594 163.4375 Z M 217.828125 168.273438 C 215.039062 173.230469 213.441406 178.726562 213.070312 184.339844 C 218.195312 186.71875 223.8125 187.90625 229.46875 187.824219 C 235.863281 187.742188 242.339844 186.019531 248.242188 182.496094 C 254.144531 179.011719 258.734375 174.132812 261.890625 168.558594 C 264.636719 163.601562 266.277344 158.105469 266.648438 152.492188 C 261.523438 150.113281 255.90625 148.882812 250.25 148.964844 C 243.855469 149.046875 237.378906 150.769531 231.4375 154.292969 C 225.574219 157.820312 220.941406 162.699219 217.828125 168.273438 Z M 167.574219 128.347656 C 171.425781 135.03125 176.507812 140.890625 182.535156 145.6875 L 182.535156 104.246094 L 192.453125 104.246094 L 192.453125 145.6875 C 198.480469 140.890625 203.5625 135.03125 207.414062 128.347656 C 212.582031 119.410156 215.53125 109 215.53125 97.851562 C 215.53125 86.742188 212.582031 76.332031 207.414062 67.355469 C 202.539062 58.953125 195.691406 51.777344 187.496094 46.488281 C 179.296875 51.777344 172.449219 58.953125 167.574219 67.355469 C 162.40625 76.332031 159.457031 86.742188 159.457031 97.851562 C 159.457031 109 162.40625 119.410156 167.574219 128.347656 Z M 107.277344 236.234375 C 113.546875 235.703125 121.5 237.503906 130.640625 241.972656 C 139.699219 246.398438 150.273438 253.492188 161.875 263.574219 C 171.304688 253 177.246094 246.5625 180.566406 243.039062 C 168.679688 231.4375 155.769531 225.085938 143.796875 221.96875 C 126.089844 217.378906 110.71875 219.59375 103.546875 222.460938 C 104.570312 227.214844 105.839844 231.808594 107.277344 236.234375 Z M 155.316406 270.996094 C 144.453125 261.566406 134.65625 254.96875 126.296875 250.867188 C 120.148438 247.875 114.980469 246.316406 110.925781 246.03125 C 118.136719 263.410156 128.261719 277.960938 138.878906 289.890625 C 145.070312 282.675781 150.519531 276.40625 155.316406 270.996094 Z M 267.628906 236.316406 C 269.105469 231.847656 270.375 227.257812 271.441406 222.460938 C 264.226562 219.59375 248.855469 217.378906 231.191406 221.96875 C 218.074219 225.371094 203.890625 232.628906 191.101562 246.398438 L 190.976562 246.523438 L 190.894531 246.644531 L 187.496094 250.292969 L 187.414062 250.253906 C 181.796875 256.195312 169.046875 270.050781 145.683594 297.105469 C 152.695312 304.15625 159.660156 310.015625 165.933594 314.773438 C 186.140625 288.085938 205.121094 268.945312 221.433594 256.277344 C 240.699219 241.359375 256.890625 235.25 267.628906 236.316406 Z M 267.628906 236.316406 " fill-opacity="1" fill-rule="evenodd"/></g><g clip-path="url(#0b2788595e)"><g clip-path="url(#77fb3d5c86)"><path stroke-linecap="butt" transform="matrix(0.75, 0, 0, 0.75, 9.779242, 9.779238)" fill="none" stroke-linejoin="miter" d="M 236.961026 -0.00252513 C 106.091226 -0.00252513 -0.00253113 106.091232 -0.00253113 236.961032 C -0.00253113 367.830832 106.091226 473.919381 236.961026 473.919381 C 367.830826 473.919381 473.919375 367.830832 473.919375 236.961032 C 473.919375 106.091232 367.830826 -0.00252513 236.961026 -0.00252513 Z M 236.961026 -0.00252513 " stroke="#00bf63" stroke-width="32" stroke-opacity="1" stroke-miterlimit="4"/></g></g></svg>